<?xml version="1.0" encoding="utf-8"?>
<!-- Generator: Adobe Illustrator 28.0.0, SVG Export Plug-In . SVG Version: 6.00 Build 0)  -->
<svg version="1.1" id="Layer_1" xmlns="http://www.w3.org/2000/svg" xmlns:xlink="http://www.w3.org/1999/xlink" x="0px" y="0px"
	 viewBox="0 0 430.4 430.4" style="enable-background:new 0 0 430.4 430.4;" xml:space="preserve">
<style type="text/css">
	.st0{display:none;}
	.st1{display:inline;}
	.st2{fill:#FFFFFF;}
	.st3{fill:none;stroke:#000000;stroke-miterlimit:10;}
	.st4{display:inline;fill:none;stroke:#000000;stroke-miterlimit:10;}
</style>
<g class="st0">
	<g class="st1">
		<g>
			<path d="M452.8,132.9c-24.6,35.6-66.9,38.7-125.1,27.8c-7.3-32.6-32.7-58.5-65.3-67C257.8,32.8,280.1-1,380.8,18.6
				c-23.5-19.8-51.9-34-85.4-42.1c-30.5-7.4-65.3-9.8-104.6-7.1C227-6.4,230.1,35.4,218.9,93c-32.7,7.3-58.7,32.1-67.4,63.8
				c-62.2,4.7-96.7-17.1-76.8-116.5c-20.1,23.1-34.5,51.1-42.8,84.1c-7.5,30-10,64.3-7.2,103c24.7-35.8,67.3-38.7,125.9-27.6
				c7.3,32.3,32.3,57.9,64.5,66.6c4.7,61-17.6,94.9-118.3,75.4c23.5,19.8,51.9,34,85.4,42.1c30.5,7.4,65.3,9.8,104.6,7.1
				c-36.2-24.2-39.3-66-28.1-123.5c33.1-7.1,59.5-32,68.2-64c61.7-4.5,95.9,17.6,76.1,116.6c20.1-23.1,34.5-51.1,42.8-84.1
				C453.1,205.9,455.6,171.6,452.8,132.9z M239.1,223.5c-24.3,0-44.1-19.4-44.1-43.4c0-24,19.7-43.4,44.1-43.4
				c22.4,0,40.9,16.5,43.7,37.8c0.2,1.8,0.4,3.7,0.4,5.6c0,1.9-0.1,3.8-0.4,5.6C280,207.1,261.5,223.5,239.1,223.5z"/>
			<path d="M451.8,131.9c-24.6,35.6-66.9,38.7-125.1,27.8c-7.3-32.6-32.7-58.5-65.3-67C256.8,31.8,279.1-2,379.8,17.6
				c-23.5-19.8-51.9-34-85.4-42.1c-30.5-7.4-65.3-9.8-104.6-7.1C226-7.4,229.1,34.4,217.9,92c-32.7,7.3-58.7,32.1-67.4,63.8
				c-62.2,4.7-96.7-17.1-76.8-116.5c-20.1,23.1-34.5,51.1-42.8,84.1c-7.5,30-10,64.3-7.2,103c24.7-35.8,67.3-38.7,125.9-27.6
				c7.3,32.3,32.3,57.9,64.5,66.6c4.7,61-17.6,94.9-118.3,75.4c23.5,19.8,51.9,34,85.4,42.1c30.5,7.4,65.3,9.8,104.6,7.1
				c-36.2-24.2-39.3-66-28.1-123.5c33.1-7.1,59.5-32,68.2-64c61.7-4.5,95.9,17.6,76.1,116.6c20.1-23.1,34.5-51.1,42.8-84.1
				C452.1,204.9,454.6,170.6,451.8,131.9z M238.1,222.5c-24.3,0-44.1-19.4-44.1-43.4c0-24,19.7-43.4,44.1-43.4
				c22.4,0,40.9,16.5,43.7,37.8c0.2,1.8,0.4,3.7,0.4,5.6c0,1.9-0.1,3.8-0.4,5.6C279,206.1,260.5,222.5,238.1,222.5z"/>
			<path d="M450.8,130.9c-24.6,35.6-66.9,38.7-125.1,27.8c-7.3-32.6-32.7-58.5-65.3-67C255.8,30.8,278.1-3,378.8,16.6
				c-23.5-19.8-51.9-34-85.4-42.1c-30.5-7.4-65.3-9.8-104.6-7.1C225-8.4,228.1,33.4,216.9,91c-32.7,7.3-58.7,32.1-67.4,63.8
				c-62.2,4.7-96.7-17.1-76.8-116.5c-20.1,23.1-34.5,51.1-42.8,84.1c-7.5,30-10,64.3-7.2,103c24.7-35.8,67.3-38.7,125.9-27.6
				c7.3,32.3,32.3,57.9,64.5,66.6c4.7,61-17.6,94.9-118.3,75.4c23.5,19.8,51.9,34,85.4,42.1c30.5,7.4,65.3,9.8,104.6,7.1
				c-36.2-24.2-39.3-66-28.1-123.5c33.1-7.1,59.5-32,68.2-64c61.7-4.5,95.9,17.6,76.1,116.6c20.1-23.1,34.5-51.1,42.8-84.1
				C451.1,203.9,453.6,169.6,450.8,130.9z M237.1,221.5c-24.3,0-44.1-19.4-44.1-43.4c0-24,19.7-43.4,44.1-43.4
				c22.4,0,40.9,16.5,43.7,37.8c0.2,1.8,0.4,3.7,0.4,5.6c0,1.9-0.1,3.8-0.4,5.6C278,205.1,259.5,221.5,237.1,221.5z"/>
			<path d="M449.8,129.9c-24.6,35.6-66.9,38.7-125.1,27.8c-7.3-32.6-32.7-58.5-65.3-67C254.8,29.8,277.1-4,377.8,15.6
				c-23.5-19.8-51.9-34-85.4-42.1c-30.5-7.4-65.3-9.8-104.6-7.1C224-9.4,227.1,32.4,215.9,90c-32.7,7.3-58.7,32.1-67.4,63.8
				c-62.2,4.7-96.7-17.1-76.8-116.5c-20.1,23.1-34.5,51.1-42.8,84.1c-7.5,30-10,64.3-7.2,103c24.7-35.8,67.3-38.7,125.9-27.6
				c7.3,32.3,32.3,57.9,64.5,66.6c4.7,61-17.6,94.9-118.3,75.4c23.5,19.8,51.9,34,85.4,42.1c30.5,7.4,65.3,9.8,104.6,7.1
				c-36.2-24.2-39.3-66-28.1-123.5c33.1-7.1,59.5-32,68.2-64c61.7-4.5,95.9,17.6,76.1,116.6c20.1-23.1,34.5-51.1,42.8-84.1
				C450.1,202.9,452.6,168.6,449.8,129.9z M236.1,220.5c-24.3,0-44.1-19.4-44.1-43.4c0-24,19.7-43.4,44.1-43.4
				c22.4,0,40.9,16.5,43.7,37.8c0.2,1.8,0.4,3.7,0.4,5.6c0,1.9-0.1,3.8-0.4,5.6C277,204.1,258.5,220.5,236.1,220.5z"/>
			<path d="M448.8,128.9c-24.6,35.6-66.9,38.7-125.1,27.8c-7.3-32.6-32.7-58.5-65.3-67C253.8,28.8,276.1-5,376.8,14.6
				c-23.5-19.8-51.9-34-85.4-42.1c-30.5-7.4-65.3-9.8-104.6-7.1C223-10.4,226.1,31.4,214.9,89c-32.7,7.3-58.7,32.1-67.4,63.8
				c-62.2,4.7-96.7-17.1-76.8-116.5c-20.1,23.1-34.5,51.1-42.8,84.1c-7.5,30-10,64.3-7.2,103c24.7-35.8,67.3-38.7,125.9-27.6
				c7.3,32.3,32.3,57.9,64.5,66.6c4.7,61-17.6,94.9-118.3,75.4c23.5,19.8,51.9,34,85.4,42.1c30.5,7.4,65.3,9.8,104.6,7.1
				c-36.2-24.2-39.3-66-28.1-123.5c33.1-7.1,59.5-32,68.2-64c61.7-4.5,95.9,17.6,76.1,116.6c20.1-23.1,34.5-51.1,42.8-84.1
				C449.1,201.9,451.6,167.6,448.8,128.9z M235.1,219.5c-24.3,0-44.1-19.4-44.1-43.4c0-24,19.7-43.4,44.1-43.4
				c22.4,0,40.9,16.5,43.7,37.8c0.2,1.8,0.4,3.7,0.4,5.6c0,1.9-0.1,3.8-0.4,5.6C276,203.1,257.5,219.5,235.1,219.5z"/>
			<path d="M447.8,127.9c-24.6,35.6-66.9,38.7-125.1,27.8c-7.3-32.6-32.7-58.5-65.3-67C252.8,27.8,275.1-6,375.8,13.6
				c-23.5-19.8-51.9-34-85.4-42.1c-30.5-7.4-65.3-9.8-104.6-7.1C222-11.4,225.1,30.4,213.9,88c-32.7,7.3-58.7,32.1-67.4,63.8
				c-62.2,4.7-96.7-17.1-76.8-116.5c-20.1,23.1-34.5,51.1-42.8,84.1c-7.5,30-10,64.3-7.2,103c24.7-35.8,67.3-38.7,125.9-27.6
				c7.3,32.3,32.3,57.9,64.5,66.6c4.7,61-17.6,94.9-118.3,75.4c23.5,19.8,51.9,34,85.4,42.1c30.5,7.4,65.3,9.8,104.6,7.1
				c-36.2-24.2-39.3-66-28.1-123.5c33.1-7.1,59.5-32,68.2-64c61.7-4.5,95.9,17.6,76.1,116.6c20.1-23.1,34.5-51.1,42.8-84.1
				C448.1,200.9,450.6,166.6,447.8,127.9z M234.1,218.5c-24.3,0-44.1-19.4-44.1-43.4c0-24,19.7-43.4,44.1-43.4
				c22.4,0,40.9,16.5,43.7,37.8c0.2,1.8,0.4,3.7,0.4,5.6c0,1.9-0.1,3.8-0.4,5.6C275,202.1,256.5,218.5,234.1,218.5z"/>
		</g>
		<path class="st2" d="M447.8,127.9c-24.6,35.6-66.9,38.7-125.1,27.8c-7.3-32.6-32.7-58.5-65.3-67C252.8,27.8,275.1-6,375.8,13.6
			c-23.5-19.8-51.9-34-85.4-42.1c-30.5-7.4-65.3-9.8-104.6-7.1C222-11.4,225.1,30.4,213.9,88c-32.7,7.3-58.7,32.1-67.4,63.8
			c-62.2,4.7-96.7-17.1-76.8-116.5c-20.1,23.1-34.5,51.1-42.8,84.1c-7.5,30-10,64.3-7.2,103c24.7-35.8,67.3-38.7,125.9-27.6
			c7.3,32.3,32.3,57.9,64.5,66.6c4.7,61-17.6,94.9-118.3,75.4c23.5,19.8,51.9,34,85.4,42.1c30.5,7.4,65.3,9.8,104.6,7.1
			c-36.2-24.2-39.3-66-28.1-123.5c33.1-7.1,59.5-32,68.2-64c61.7-4.5,95.9,17.6,76.1,116.6c20.1-23.1,34.5-51.1,42.8-84.1
			C448.1,200.9,450.6,166.6,447.8,127.9z M234.1,218.5c-24.3,0-44.1-19.4-44.1-43.4c0-24,19.7-43.4,44.1-43.4
			c22.4,0,40.9,16.5,43.7,37.8c0.2,1.8,0.4,3.7,0.4,5.6c0,1.9-0.1,3.8-0.4,5.6C275,202.1,256.5,218.5,234.1,218.5z"/>
		<path class="st3" d="M447.8,127.9c-24.6,35.6-66.9,38.7-125.1,27.8c-7.3-32.6-32.7-58.5-65.3-67C252.8,27.8,275.1-6,375.8,13.6
			c-23.5-19.8-51.9-34-85.4-42.1c-30.5-7.4-65.3-9.8-104.6-7.1C222-11.4,225.1,30.4,213.9,88c-32.7,7.3-58.7,32.1-67.4,63.8
			c-62.2,4.7-96.7-17.1-76.8-116.5c-20.1,23.1-34.5,51.1-42.8,84.1c-7.5,30-10,64.3-7.2,103c24.7-35.8,67.3-38.7,125.9-27.6
			c7.3,32.3,32.3,57.9,64.5,66.6c4.7,61-17.6,94.9-118.3,75.4c23.5,19.8,51.9,34,85.4,42.1c30.5,7.4,65.3,9.8,104.6,7.1
			c-36.2-24.2-39.3-66-28.1-123.5c33.1-7.1,59.5-32,68.2-64c61.7-4.5,95.9,17.6,76.1,116.6c20.1-23.1,34.5-51.1,42.8-84.1
			C448.1,200.9,450.6,166.6,447.8,127.9z M234.1,218.5c-24.3,0-44.1-19.4-44.1-43.4c0-24,19.7-43.4,44.1-43.4
			c22.4,0,40.9,16.5,43.7,37.8c0.2,1.8,0.4,3.7,0.4,5.6c0,1.9-0.1,3.8-0.4,5.6C275,202.1,256.5,218.5,234.1,218.5z"/>
	</g>
	<path class="st4" d="M458.3,26.6"/>
</g>
<g>
	<path d="M429.3,167.3c-24.6,36.2-66.9,39.3-125.1,28.2c-7.3-33.1-32.7-59.4-65.3-68c-4.7-61.9,17.7-96.2,118.4-76.3
		C333.8,31,305.4,16.6,271.8,8.3c-30.5-7.5-65.3-10-104.6-7.2c36.2,24.6,39.3,67.1,28.1,125.5c-32.7,7.4-58.7,32.5-67.4,64.8
		C65.8,196.2,31.2,174,51.1,73.1C31,96.6,16.6,125,8.3,158.6c-7.5,30.5-10,65.3-7.2,104.6c24.7-36.3,67.3-39.3,125.9-28
		c7.3,32.8,32.3,58.8,64.5,67.7c4.7,62-17.6,96.4-118.3,76.5c23.5,20.2,51.9,34.5,85.4,42.8c30.5,7.5,65.3,10,104.6,7.2
		c-36.2-24.6-39.3-67-28.1-125.4c33.1-7.2,59.5-32.5,68.2-65c61.7-4.6,95.9,17.9,76.1,118.4c20.1-23.5,34.5-51.9,42.8-85.4
		C429.6,241.3,432,206.5,429.3,167.3z M215.6,259.3c-24.3,0-44.1-19.7-44.1-44.1c0-24.4,19.7-44.1,44.1-44.1
		c22.4,0,40.9,16.7,43.7,38.4c0.2,1.9,0.4,3.8,0.4,5.7c0,1.9-0.1,3.8-0.4,5.7C256.5,242.5,238,259.3,215.6,259.3z"/>
	<path class="st2" d="M429.3,167.3c-24.6,36.2-66.9,39.3-125.1,28.2c-7.3-33.1-32.7-59.4-65.3-68c-4.7-61.9,17.7-96.2,118.4-76.3
		C333.8,31,305.4,16.6,271.8,8.3c-30.5-7.5-65.3-10-104.6-7.2c36.2,24.6,39.3,67.1,28.1,125.5c-32.7,7.4-58.7,32.5-67.4,64.8
		C65.8,196.2,31.2,174,51.1,73.1C31,96.6,16.6,125,8.3,158.6c-7.5,30.5-10,65.3-7.2,104.6c24.7-36.3,67.3-39.3,125.9-28
		c7.3,32.8,32.3,58.8,64.5,67.7c4.7,62-17.6,96.4-118.3,76.5c23.5,20.2,51.9,34.5,85.4,42.8c30.5,7.5,65.3,10,104.6,7.2
		c-36.2-24.6-39.3-67-28.1-125.4c33.1-7.2,59.5-32.5,68.2-65c61.7-4.6,95.9,17.9,76.1,118.4c20.1-23.5,34.5-51.9,42.8-85.4
		C429.6,241.3,432,206.5,429.3,167.3z M215.6,259.3c-24.3,0-44.1-19.7-44.1-44.1c0-24.4,19.7-44.1,44.1-44.1
		c22.4,0,40.9,16.7,43.7,38.4c0.2,1.9,0.4,3.8,0.4,5.7c0,1.9-0.1,3.8-0.4,5.7C256.5,242.5,238,259.3,215.6,259.3z"/>
</g>
<path class="st3" d="M362.6,52.4"/>
<g>
</g>
<g>
</g>
<g>
</g>
<g>
</g>
<g>
</g>
<g>
</g>
</svg>
