<?xml version="1.0" encoding="utf-8"?>
<!-- Generator: Adobe Illustrator 28.0.0, SVG Export Plug-In . SVG Version: 6.00 Build 0)  -->
<svg version="1.1" id="Layer_1" xmlns="http://www.w3.org/2000/svg" xmlns:xlink="http://www.w3.org/1999/xlink" x="0px" y="0px"
	 viewBox="0 0 413.4 78" style="enable-background:new 0 0 413.4 78;" xml:space="preserve">
<style type="text/css">
	.st0{fill:none;}
	.st1{fill:#FFFFFF;}
</style>
<g>
	<rect x="-329" y="115.7" class="st0" width="0.9" height="7.9"/>
</g>
<g>
	<g>
		<path class="st1" d="M21.2,0.4c8.5,0,12.7,0,21.2,0c0,5.8,0,8.6,0,14.4c-8.5,0.5-12.7,0.8-21.2,1.4c0,10.1,0,15.1,0,25.2
			c0,8.2-1.7,15.5-5.2,22.4c-3.4,6.9-7.6,11.4-12.4,13C2.1,77.2,1.4,77.5,0,78C0,71,0,67.6,0,60.6c2-0.5,3-0.8,5-1.3
			c1.9-0.5,3.4-2.1,4.7-4.7c1.3-2.6,2-5.5,2-8.7c0-9.7,0-19.3,0-29C7.1,17.2,4.7,17.4,0,17.8c0-7,0-10.5,0-17.5c8.5,0,12.7,0,21.2,0
			C21.2,0.3,21.2,0.3,21.2,0.4z"/>
		<path class="st1" d="M66.2,13.5c-0.4,0-0.8,0.2-1.1,0.6c-0.3,0.4-0.4,0.9-0.4,1.5c0,3.8,0,5.6,0,9.4c11-1.1,21.9-2.1,32.9-3
			c0,4.6,0,6.9-0.1,11.5c-10.9,1.4-21.8,2.9-32.6,4.6c0.4,2.2,1.3,3.8,2.7,5.1c1.3,1.2,2.8,1.7,4.5,1.4c9.6-1.7,14.4-2.5,24-4
			c0.4-0.1,0.7,0.1,1,0.4c0.3,0.3,0.4,0.7,0.4,1.2c0,3.2,0,4.8,0,8c0,0.5-0.1,1-0.4,1.3c-0.3,0.4-0.6,0.6-1,0.7
			c-10.5,2-15.8,3.1-26.3,5.6c-4.1,0.9-7.5-0.2-10.4-3.7c-2.8-3.5-4.3-8.3-4.2-14.2c0-0.1,0-0.1,0-0.2c-2.9,0.5-4.4,0.8-7.3,1.3
			c0-5.6,0-8.4,0-14.1c2.9-0.3,4.4-0.5,7.3-0.8c0-9.4,0-14.1,0.1-23.5c0-0.6,0.1-1,0.4-1.4c0.3-0.4,0.6-0.6,1-0.6
			C70,0.4,83.1,0.3,96.3,0.3c0.4,0,0.7,0.2,1,0.5c0.3,0.3,0.4,0.7,0.4,1.3c0,3.2,0,4.8,0,8c0,0.5-0.1,0.9-0.4,1.2
			c-0.3,0.4-0.6,0.6-1,0.6C86.3,12.3,76.2,12.9,66.2,13.5z"/>
		<path class="st1" d="M127.4,36.6c10.2-1,15.4-1.5,25.6-2.2c0,3.9,0,5.9,0,9.9c-9.7,0.8-19.5,1.9-29.2,3.3c-2.4,0.3-4.6,0-6.7-1.1
			c-2-1.1-3.7-2.7-4.8-5c-1.2-2.3-1.7-4.8-1.7-7.6c0-0.8,0-1.1,0-1.9c-2.9,0.3-4.4,0.5-7.3,0.8c0-4.5,0-6.8,0.1-11.4
			c2.9-0.2,4.4-0.3,7.3-0.5c0-8.3,0.1-12.5,0.1-20.8c10.9,0,16.4,0,27.3,0c0,4.1,0,6.2,0,10.3c-7.1,0.2-10.7,0.3-17.8,0.5
			c0,7.2,0,10.9-0.1,18.1c0,2.3,0.7,4.2,2.1,5.7C123.6,36.2,125.3,36.8,127.4,36.6z"/>
		<path class="st1" d="M187.2,0.2c3.8,0,5.7,0,9.5,0c0,14,0,28,0,42c-3.8,0.1-5.7,0.1-9.5,0.2c0-6.1,0-9.1,0-15.1
			c-6.5,0.1-9.8,0.2-16.3,0.5c0,0,0,0,0,0.1c0,3.7-1.2,6.9-3.5,9.8c-2.3,2.9-5.2,4.9-8.7,5.8c0-4.6,0-6.9,0-11.5
			c1.8-1.7,2.6-3.7,2.6-6c0-5.9,0-8.8,0-14.7c0-0.4-0.1-0.7-0.4-1c-0.3-0.3-0.6-0.4-1-0.4c-0.5,0-0.7,0-1.2,0c0-3.9,0-5.9,0-9.8
			c4.3,0,6.4,0,10.7,0c0.4,0,0.7,0.1,1,0.4c0.3,0.3,0.4,0.6,0.4,1c0,6.7,0,10,0,16.7c6.5-0.2,9.8-0.2,16.3-0.3
			C187.2,10.9,187.2,7.3,187.2,0.2z"/>
		<path class="st1" d="M245.2,0.1c3.8,0,5.7,0,9.5,0c0,3.9,0,5.9,0,9.9c0,3.4-0.9,6.6-2.6,9.5c1.8,1.2,2.6,2.9,2.6,5
			c0,7.8,0,11.7,0.1,19.6c-3.8-0.3-5.7-0.4-9.5-0.7c0-6.2,0-9.3,0-15.5c-4.7-0.2-7.1-0.3-11.8-0.4c0,6.1,0,9.1,0,15.2
			c-3.8-0.2-5.7-0.2-9.5-0.3c0-6,0-9.1,0-15.1c-2.8-0.1-4.2-0.1-7.1-0.1c0-3.7,0-5.6,0-9.3c2.8,0,4.2,0,7.1,0.1c0-7.1,0-10.7,0-17.8
			c3.8,0,5.7,0,9.5,0c0,7.2,0,10.8,0,18c2,0,3,0.1,5.1,0.1c1.9,0,3.4-0.6,4.7-1.9c1.3-1.3,1.9-2.9,1.9-4.8
			C245.2,7,245.2,4.7,245.2,0.1z"/>
		<path class="st1" d="M302.8,10.4c-2.2-0.1-3.3-0.1-5.5-0.2c0,4.1,0,6.1,0,10.2c2.2,0.1,3.3,0.2,5.5,0.4c0,4.4,0,6.7,0.1,11.1
			c-2.2-0.2-3.3-0.3-5.5-0.6c0,6.9,0,10.4,0.1,17.3c-3.8-0.6-5.7-0.8-9.5-1.3c0-6.7,0-10.1-0.1-16.8c-4.9-0.4-7.4-0.6-12.4-1
			c0,6.5,0,9.8,0.1,16.3c-3.8-0.4-5.7-0.6-9.5-1c0-6.4,0-9.6-0.1-15.9c-2.2-0.1-3.4-0.2-5.6-0.3c0-4,0-6,0-9.9
			c2.2,0.1,3.4,0.1,5.6,0.2c0-3.8,0-5.7,0-9.4c-2.2,0-3.4-0.1-5.6-0.1c0-3.7,0-5.6,0-9.3c14.1,0,28.3,0,42.4,0
			C302.7,4.2,302.8,6.3,302.8,10.4z M287.8,19.9c0-4,0-6,0-10c-4.9-0.1-7.4-0.2-12.4-0.3c0,3.9,0,5.8,0,9.6
			C280.4,19.5,282.9,19.6,287.8,19.9z"/>
		<path class="st1" d="M358.2,25.9c0,11.7,0.1,23.4,0.1,35.2c-9.6-2.5-19.3-4.7-29.1-6.6c-3.7-0.7-6.8-3-9.4-6.7
			c-2.6-3.7-3.9-7.7-3.9-12.2c0-0.8,0-1.2,0-2c-2.9-0.3-4.4-0.5-7.3-0.8c0-4.5,0-6.7-0.1-11.2c2.9,0.2,4.4,0.3,7.3,0.5
			c0-8.7-0.1-13-0.1-21.7c10.9,0,16.3,0,27.2,0c0,5.1,0,7.7,0.1,12.8c-7.1-0.4-10.7-0.5-17.8-0.9c0,4.2,0,6.3,0,10.5
			C336.2,23.7,347.2,24.8,358.2,25.9z M332.7,42.9c6.4,1.1,9.7,1.6,16.1,2.8c0-3.1,0-4.6,0-7.7c-9.3-1.4-13.9-2.1-23.2-3.3
			c0.4,2.1,1.3,3.9,2.6,5.4C329.5,41.7,331,42.6,332.7,42.9z"/>
		<path class="st1" d="M382,15.7c-0.4,0-0.8,0.2-1.1,0.6c-0.3,0.4-0.4,0.9-0.4,1.6c0,4.3,0,6.4,0,10.7c11,1.4,21.9,2.8,32.9,4.3
			c0,6.9,0,10.3,0,17.2c-10.8-2.3-21.7-4.5-32.5-6.5c0.5,2.6,1.4,4.9,2.7,6.9c1.3,2,2.8,3.2,4.5,3.6c9.6,2.2,14.3,3.3,23.9,5.8
			c0.4,0.1,0.7,0.5,1,1.1c0.3,0.6,0.4,1.3,0.4,2c0,4.8,0,7.2,0,12c0,0.8-0.1,1.4-0.4,1.7c-0.3,0.4-0.6,0.5-1,0.4
			c-10.4-3.5-15.7-5.1-26.1-8.1c-4-1.2-7.5-4.5-10.4-9.8c-2.9-5.2-4.3-10.8-4.3-17.1c0-0.1,0-0.2,0-0.3c-2.9-0.5-4.4-0.7-7.3-1.2
			c0-5.6,0-8.4,0-14c2.9,0.3,4.4,0.5,7.3,0.8c0-9.9,0-14.9-0.1-24.8c0-0.6,0.1-1.1,0.4-1.5c0.3-0.4,0.6-0.7,1-0.7
			c13.2,0,26.4-0.1,39.5-0.1c0.4,0,0.7,0.2,1,0.7c0.3,0.5,0.4,1.1,0.4,1.9c0,4.8,0,7.2,0,12c0,0.7-0.1,1.3-0.4,1.8
			c-0.3,0.5-0.6,0.7-1,0.7C402,16.9,392,16.2,382,15.7z"/>
	</g>
</g>
<g>
</g>
<g>
</g>
<g>
</g>
<g>
</g>
<g>
</g>
<g>
</g>
</svg>
